<svg width="200" height="200" viewBox="0 0 200 200" fill="none" xmlns="http://www.w3.org/2000/svg">
<g clip-path="url(#clip0_4102_4948)">
<path d="M165.339 0H34.6614C15.5184 0 0 15.5184 0 34.6614V165.339C0 184.482 15.5184 200 34.6614 200H165.339C184.482 200 200 184.482 200 165.339V34.6614C200 15.5184 184.482 0 165.339 0Z" fill="#8100EC"/>
<path d="M162.405 54.2077L160.964 53.9268C157.018 53.1546 153.388 51.234 150.53 48.4062C147.672 45.5783 145.712 41.9691 144.898 38.0317C143.947 33.4341 141.441 29.3047 137.8 26.34C134.16 23.3753 129.609 21.7566 124.914 21.7568H68.2201C55.7318 21.7568 43.7549 26.7178 34.9244 35.5484C26.0938 44.379 21.1328 56.3558 21.1328 68.8441V131.156C21.1328 143.644 26.0938 155.621 34.9244 164.451C43.7549 173.282 55.7318 178.243 68.2201 178.243H131.832C144.32 178.243 156.297 173.282 165.128 164.451C173.958 155.621 178.919 143.644 178.919 131.156V74.2327C178.919 69.4968 177.271 64.9086 174.258 61.2549C171.245 57.6012 167.054 55.1097 162.405 54.2077Z" fill="#EEEDFF"/>
<path d="M127.494 102.055C124.775 99.4708 121.66 97.339 118.267 95.7403C114.548 93.9303 110.106 92.063 105.066 90.1958C102.621 89.348 100.359 88.5157 98.3356 87.7147C96.4309 86.9778 94.6005 86.0617 92.869 84.9789C91.3933 84.083 90.1127 82.8997 89.1033 81.4992C88.1518 80.0617 87.6701 78.3642 87.7249 76.6412C87.7249 73.4268 88.9836 70.9978 91.4595 69.427C93.9353 67.8562 97.701 67.1489 103.147 67.1489C107.885 67.1489 111.989 67.7054 115.396 68.8029C117.705 69.5515 119.974 70.4195 122.194 71.4035C122.415 71.4999 122.653 71.5496 122.893 71.5496C123.134 71.5496 123.372 71.4999 123.593 71.4035C123.816 71.3094 124.017 71.1709 124.184 70.9965C124.351 70.8221 124.481 70.6155 124.566 70.3893L129.33 57.386C129.481 56.9784 129.476 56.5291 129.314 56.1254C129.153 55.7217 128.847 55.3924 128.456 55.2015C125.288 53.7389 122.005 52.5369 118.641 51.6074C113.924 50.2186 108.239 49.5269 101.732 49.5269C96.7317 49.4606 91.7495 50.1408 86.9499 51.545C82.9193 52.7194 79.1538 54.6622 75.8608 57.2664C72.8631 59.7082 70.4572 62.7969 68.8235 66.301C67.127 70.0578 66.2799 74.1424 66.3424 78.264C66.3424 82.6695 67.1278 86.4456 68.6778 89.4936C70.1724 92.4836 72.2339 95.1546 74.7477 97.3579C77.2903 99.5878 80.1446 101.435 83.2206 102.84C86.3674 104.281 89.5766 105.576 92.7598 106.699C100.224 109.191 105.352 111.453 108.442 113.622C111.531 115.791 113.211 118.699 113.211 122.09C113.227 123.559 112.969 125.017 112.452 126.392C111.892 127.783 110.94 128.981 109.711 129.84C108.173 130.889 106.45 131.639 104.634 132.051C102.062 132.634 99.428 132.902 96.7908 132.846C90.5492 132.846 85.2023 132.196 80.8852 130.917C78.0407 130.035 75.2484 128.993 72.5216 127.796C72.2998 127.701 72.0609 127.653 71.8198 127.655C71.5787 127.656 71.3405 127.708 71.12 127.805C70.8995 127.903 70.7014 128.045 70.5381 128.222C70.3748 128.399 70.2497 128.608 70.1706 128.836L65.3854 141.839C65.2338 142.246 65.2387 142.695 65.3992 143.099C65.5597 143.502 65.8643 143.832 66.254 144.024C66.9874 144.388 68.0849 144.919 69.1563 145.392C71.3788 146.339 73.6642 147.132 75.996 147.764C79.0103 148.583 82.0729 149.214 85.1659 149.652C89.0171 150.19 92.9023 150.447 96.7908 150.422C109.487 150.422 119.094 147.925 125.356 142.999C131.619 138.074 134.719 131.25 134.719 122.231C134.719 117.622 134.115 113.659 132.924 110.444C131.758 107.28 129.903 104.414 127.494 102.055Z" fill="#8100EC"/>
</g>
<defs>
<clipPath id="clip0_4102_4948">
<rect width="200" height="200" fill="white"/>
</clipPath>
</defs>
</svg>
